<svg width="26" height="26" viewBox="0 0 26 26" fill="none" xmlns="http://www.w3.org/2000/svg">
<path d="M7.3125 3.25C6.23506 3.25 5.20175 3.67801 4.43988 4.43988C3.67801 5.20175 3.25 6.23506 3.25 7.3125V15.4375C3.25 15.971 3.35508 16.4993 3.55924 16.9922C3.7634 17.485 4.06264 17.9329 4.43988 18.3101C5.20175 19.072 6.23506 19.5 7.3125 19.5H15.4375C15.971 19.5 16.4993 19.3949 16.9922 19.1908C17.485 18.9866 17.9329 18.6874 18.3101 18.3101C18.6874 17.9329 18.9866 17.485 19.1908 16.9922C19.3949 16.4993 19.5 15.971 19.5 15.4375V7.3125C19.5 6.779 19.3949 6.25073 19.1908 5.75785C18.9866 5.26496 18.6874 4.81712 18.3101 4.43988C17.9329 4.06264 17.485 3.7634 16.9922 3.55924C16.4993 3.35508 15.971 3.25 15.4375 3.25H7.3125ZM16.0128 9.51275L11.1378 14.3878C11.0623 14.4634 10.9726 14.5234 10.8739 14.5644C10.7752 14.6054 10.6694 14.6265 10.5625 14.6265C10.4556 14.6265 10.3498 14.6054 10.2511 14.5644C10.1524 14.5234 10.0627 14.4634 9.98725 14.3878L7.54975 11.9503C7.47421 11.8747 7.41428 11.785 7.3734 11.6863C7.33252 11.5876 7.31147 11.4818 7.31147 11.375C7.31147 11.2682 7.33252 11.1624 7.3734 11.0637C7.41428 10.965 7.47421 10.8753 7.54975 10.7997C7.62529 10.7242 7.71497 10.6643 7.81368 10.6234C7.91238 10.5825 8.01817 10.5615 8.125 10.5615C8.23183 10.5615 8.33762 10.5825 8.43632 10.6234C8.53503 10.6643 8.62471 10.7242 8.70025 10.7997L10.5625 12.6636L14.8622 8.36225C15.0148 8.20968 15.2217 8.12397 15.4375 8.12397C15.6533 8.12397 15.8602 8.20968 16.0128 8.36225C16.1653 8.51482 16.251 8.72174 16.251 8.9375C16.251 9.15326 16.1653 9.36018 16.0128 9.51275ZM8.125 21.125C8.866 22.1114 10.0458 22.75 11.375 22.75H15.4375C17.3769 22.75 19.2369 21.9796 20.6082 20.6082C21.9796 19.2369 22.75 17.3769 22.75 15.4375V9.75C22.75 8.42075 22.1114 7.241 21.125 6.5V15.4375C21.125 16.9459 20.5258 18.3926 19.4592 19.4592C18.3926 20.5258 16.9459 21.125 15.4375 21.125H8.125Z" fill="currentColor"/>
</svg>
