<svg width="25" height="25" viewBox="0 0 25 25" fill="none" xmlns="http://www.w3.org/2000/svg">
<path d="M4.34894 18.9844C3.61977 18.0469 3.06005 17.0271 2.66977 15.925C2.2795 14.823 2.08401 13.6813 2.08331 12.5C2.08262 11.3188 2.27811 10.1775 2.66977 9.07608C3.06144 7.97469 3.62116 6.95456 4.34894 6.01567C5.35588 6.79692 6.14581 7.75629 6.71873 8.89379C7.29165 10.0313 7.57811 11.2334 7.57811 12.5C7.57811 13.7667 7.29165 14.9691 6.71873 16.1073C6.14581 17.2455 5.35588 18.2046 4.34894 18.9844ZM12.5 22.9167C11.25 22.9167 10.0566 22.7084 8.91977 22.2917C7.78297 21.875 6.74547 21.2674 5.80727 20.4688C7.00519 19.4792 7.94269 18.2945 8.61977 16.9146C9.29686 15.5348 9.6354 14.0632 9.6354 12.5C9.6354 10.9368 9.29686 9.46567 8.61977 8.0865C7.94269 6.70733 7.00519 5.52226 5.80727 4.53129C6.74477 3.73268 7.78227 3.12504 8.91977 2.70837C10.0573 2.29171 11.2507 2.08337 12.5 2.08337C13.7493 2.08337 14.943 2.29171 16.0812 2.70837C17.2194 3.12504 18.2566 3.73268 19.1927 4.53129C17.9948 5.52087 17.0573 6.70594 16.3802 8.0865C15.7031 9.46706 15.3646 10.9382 15.3646 12.5C15.3646 14.0618 15.7031 15.5334 16.3802 16.9146C17.0573 18.2959 17.9948 19.4806 19.1927 20.4688C18.2552 21.2674 17.2177 21.875 16.0802 22.2917C14.9427 22.7084 13.7493 22.9167 12.5 22.9167ZM20.651 18.9844C19.6441 18.2032 18.8541 17.2441 18.2812 16.1073C17.7083 14.9705 17.4219 13.7681 17.4219 12.5C17.4219 11.232 17.7083 10.0296 18.2812 8.89275C18.8541 7.75594 19.6441 6.79692 20.651 6.01567C21.3802 6.95317 21.9403 7.97331 22.3312 9.07608C22.7222 10.1789 22.9173 11.3202 22.9167 12.5C22.916 13.6799 22.7208 14.8216 22.3312 15.925C21.9417 17.0285 21.3816 18.0483 20.651 18.9844Z" fill="currentColor"/>
</svg>
