<svg width="18" height="18" viewBox="0 0 18 18" fill="none" xmlns="http://www.w3.org/2000/svg">
<g clip-path="url(#clip0_84_24)">
<path d="M10.7331 10.2762C8.86807 10.2762 5.14491 11.2052 5.14491 13.0703V14.4674H16.3214V13.0703C16.3214 11.2052 12.5982 10.2762 10.7331 10.2762ZM4.44638 7.48207V5.38648H3.04932V7.48207H0.953735V8.87913H3.04932V10.9747H4.44638V8.87913H6.54197V7.48207M10.7331 8.87913C11.4742 8.87913 12.1849 8.58475 12.7089 8.06075C13.2329 7.53675 13.5273 6.82606 13.5273 6.08501C13.5273 5.34397 13.2329 4.63327 12.7089 4.10927C12.1849 3.58527 11.4742 3.29089 10.7331 3.29089C9.9921 3.29089 9.28141 3.58527 8.75741 4.10927C8.23341 4.63327 7.93903 5.34397 7.93903 6.08501C7.93903 6.82606 8.23341 7.53675 8.75741 8.06075C9.28141 8.58475 9.9921 8.87913 10.7331 8.87913Z" fill="currentColor"/>
</g>
<defs>
<clipPath id="clip0_84_24">
<rect width="16.7647" height="16.7647" fill="white" transform="translate(0.255188 0.496826)"/>
</clipPath>
</defs>
</svg>
