<svg width="24" height="24" viewBox="0 0 24 24" fill="none" xmlns="http://www.w3.org/2000/svg">
<path d="M21 19C21.2549 19.0003 21.5 19.0979 21.6854 19.2728C21.8707 19.4478 21.9822 19.687 21.9972 19.9414C22.0121 20.1958 21.9293 20.4464 21.7657 20.6418C21.6021 20.8373 21.3701 20.9629 21.117 20.993L21 21H2.99999C2.74511 20.9997 2.49996 20.9021 2.31462 20.7272C2.12929 20.5522 2.01776 20.313 2.00282 20.0586C1.98788 19.8042 2.07067 19.5536 2.23426 19.3582C2.39785 19.1627 2.62989 19.0371 2.88299 19.007L2.99999 19H21ZM19 4C19.5046 3.99984 19.9906 4.19041 20.3605 4.5335C20.7305 4.87659 20.9571 5.34684 20.995 5.85L21 6V16C21.0002 16.5046 20.8096 16.9906 20.4665 17.3605C20.1234 17.7305 19.6531 17.9572 19.15 17.995L19 18H4.99999C4.49541 18.0002 4.00942 17.8096 3.63944 17.4665C3.26946 17.1234 3.04283 16.6532 3.00499 16.15L2.99999 16V6C2.99983 5.49542 3.1904 5.00943 3.53349 4.63945C3.87658 4.26947 4.34684 4.04284 4.84999 4.005L4.99999 4H19Z" fill="currentColor"/>
</svg>
